<?xml version="1.0" encoding="utf-8"?>
<!-- Generator: Adobe Illustrator 27.5.0, SVG Export Plug-In . SVG Version: 6.00 Build 0)  -->
<svg version="1.1" id="Layer_1" xmlns="http://www.w3.org/2000/svg" xmlns:xlink="http://www.w3.org/1999/xlink" x="0px" y="0px"
	 viewBox="0 0 2000 667.1" style="enable-background:new 0 0 2000 667.1;" xml:space="preserve">
<style type="text/css">
	.st0{fill-rule:evenodd;clip-rule:evenodd;fill:#FFFFFF;}
	.st1{fill:#FFFFFF;}
</style>
<g>
	<path class="st0" d="M1953.5,29.1c-3.2-2.8-8.3-4-15.1-4h-22V82h8.9V57.5h9.4l15.5,24.4h9.5l-16.2-25.1c4.2-0.4,7.8-1.9,10.6-4.2
		c2.9-2.5,4.3-6.1,4.3-11.2C1958.4,35.9,1956.7,31.8,1953.5,29.1L1953.5,29.1L1953.5,29.1z M1940.2,50.2c-1.8,0-3.6,0-5.7,0h-9.3
		V32.1h11.7c1.5,0,3,0,4.5,0.3c1.5,0.3,2.9,0.7,4,1.2c1.2,0.7,2.2,1.5,2.9,2.6c0.7,1.1,1.1,2.6,1.1,4.5c0,2.3-0.4,4-1.2,5.3
		c-0.8,1.2-1.9,2.2-3.2,2.9c-1.4,0.6-3,1-4.7,1.1l0,0L1940.2,50.2z"/>
	<path class="st0" d="M1900.9,19c-4.5,4.3-8,9.5-10.6,15.4c-2.6,6-3.9,12.2-3.9,19.1s1.4,13.6,3.9,19.4c2.6,6,6.1,11.1,10.6,15.5
		c4.5,4.3,9.6,7.8,15.7,10.1c6,2.5,12.2,3.6,19,3.6c6.8,0,12.9-1.2,18.9-3.6c5.8-2.5,11-5.8,15.5-10.1c4.4-4.3,8-9.5,10.6-15.5
		c2.6-6,3.9-12.5,3.9-19.4s-1.4-13.2-3.9-19.1c-2.6-5.8-6.1-11-10.6-15.4s-9.6-7.8-15.5-10.1c-6-2.5-12.2-3.6-18.9-3.6
		c-6.7,0-13,1.2-19,3.6C1910.5,11.2,1905.4,14.7,1900.9,19z M1906.8,83.3c-3.5-3.8-6.4-8.2-8.5-13.2s-3.2-10.6-3.2-16.5
		s1-11.2,3.2-16.2c2.1-5,4.9-9.4,8.5-13s7.9-6.7,12.8-8.7c4.9-2.2,10.1-3.2,16-3.2c5.9,0,10.8,1.1,15.8,3.2c4.9,2.2,9.1,5,12.6,8.7
		c3.6,3.6,6.4,8,8.5,13s3.2,10.4,3.2,16.2s-1.1,11.5-3.2,16.5s-4.9,9.5-8.5,13.2c-3.5,3.6-7.9,6.7-12.6,8.9
		c-4.9,2.2-10,3.2-15.8,3.2c-5.7,0-11-1.1-16-3.2C1914.7,90,1910.4,87.1,1906.8,83.3z"/>
	<path class="st0" d="M168.2,470.6L303.4,65.7h207.2c38.4,0,66.6,3.2,84.8,9.9c18,6.7,30.4,18.9,36.8,36.9
		c6.4,17.9,5.4,39.8-3.2,65.6c-7.5,22.4-18.7,41.8-33.7,58.1s-32.5,29.4-52.6,39.7c-12.8,6.5-29,11.8-49,16
		c13.2,5,22.2,10.1,27.5,15c11,10,19.1,30,21.8,46.5L564,470.7H423.3L398.2,347c-3.2-16-7.1-26.5-12.1-31.2
		c-6.9-6.2-16-9.4-27.3-9.4h-11L293,470.8H168C168,470.6,168.2,470.6,168.2,470.6z M373.5,229.7h52.4c23.6,0,43.3-3.8,59.2-18.2
		c7.5-6.8,12.8-14.7,15.7-23.5c4.3-13,3.5-23-2.3-30.1s-20.2-10.4-42.9-10.4H401C400.9,147.4,373.5,229.7,373.5,229.7z"/>
	<path class="st0" d="M645.4,268.6c21.2-64,55.4-113.6,102.4-149.3c47-35.5,102-53.4,164.8-53.4s108.4,17.5,131.5,52.6
		c23.2,35,24.4,84.1,3.3,147.1c-15.2,45.8-35.3,83.2-60.2,112.5c-25,29.3-54.5,52.2-88.8,68.4s-72.8,24.4-115.8,24.4
		c-43,0-77.6-7.1-101.4-21.1c-23.9-14.1-39.8-36.2-47.4-66.8c-7.6-30.4-3.9-68.5,11.2-114.3L645.4,268.6L645.4,268.6z M764.9,269.1
		c-13.2,39.5-15.4,67.9-6.5,85.3c8.9,17.2,25.7,25.9,50.6,25.9s48.4-8.5,68.1-25.4c19.7-16.9,36.8-47.3,51.3-91.1
		c12.2-36.8,13.9-63.8,4.7-80.8s-26.2-25.5-51.3-25.5s-46.3,8.7-66.6,25.9S778.1,229.3,764.9,269.1z"/>
	<path class="st1" d="M1066.9,333.5l116.7-7.2c-3.8,18.6-3.5,32.9,0.8,42.5c7.1,15.8,22.2,23.6,45.1,23.6c17.1,0,31.6-4,43.7-12.1
		c11.9-8,19.8-17.4,23.3-28.1c3.3-10,2.1-19.1-4.2-27.2c-6.1-8-24.1-15.5-53.9-22.6c-48.7-11.8-80.9-27.7-96.8-47.4
		c-16-19.7-18.9-44.8-8.7-75.2c6.7-20.1,18.9-39,36.4-56.7s39.7-31.8,66.3-41.9S1295.6,66,1336.2,66c49.7,0,84.5,9.3,104.3,27.9
		c19.8,18.6,25.5,48,16.9,88.4l-115.4,6.7c2.9-17.5,0.8-30.3-6.1-38.3c-6.9-8-18.9-11.9-35.8-11.9c-14,0-25.5,3-34.5,9
		c-9.1,6-15.1,13.2-17.9,21.8c-2.1,6.2-1.1,11.8,3.2,16.7c3.9,5.1,15.8,9.9,35.4,14.4c48.7,11.4,82.4,22.8,101.3,34.5
		c18.9,11.5,30.5,26.1,35.1,43.2c4.6,17.2,3.2,36.4-3.8,57.7c-8.5,25-22.9,48-43.8,69.1c-20.9,21.1-45.5,37.1-73.8,48
		c-28.4,10.8-61.3,16.2-99.1,16.2c-66.2,0-107.7-12.8-124.5-38.3C1060.8,405.5,1057.1,373,1066.9,333.5L1066.9,333.5L1066.9,333.5z"
		/>
	<path class="st1" d="M1456.5,333.5l116.7-7.2c-3.8,18.6-3.5,32.9,0.8,42.5c7.1,15.8,22.2,23.6,45.1,23.6c17.1,0,31.8-4,43.7-12.1
		s19.8-17.4,23.3-28.1c3.3-10,2.1-19.1-4.2-27.2c-6.1-8-24.1-15.5-53.9-22.6c-48.7-11.8-80.9-27.7-96.8-47.4
		c-16-19.7-18.9-44.8-8.7-75.2c6.7-20.1,18.9-39,36.4-56.7c17.5-17.8,39.7-31.8,66.3-41.9S1685.3,66,1725.9,66
		c49.7,0,84.5,9.3,104.3,27.9c19.8,18.6,25.5,48,16.9,88.4l-115.4,6.7c2.9-17.5,0.8-30.3-6.1-38.3c-6.9-8-18.9-11.9-35.8-11.9
		c-14,0-25.5,3-34.5,9c-9.1,6-15.1,13.2-17.9,21.8c-2.1,6.2-1.1,11.8,3.2,16.7c3.9,5.1,15.8,9.9,35.4,14.4
		c48.6,11.4,82.4,22.8,101.3,34.5c18.9,11.5,30.5,26.1,35,43.2c4.6,17.2,3.2,36.4-3.8,57.7c-8.5,25-22.9,48-43.8,69.1
		c-20.9,21.1-45.5,37.1-73.8,48c-28.4,10.8-61.3,16.2-99.1,16.2c-66.2,0-107.7-12.8-124.5-38.3
		C1450.3,405.5,1446.7,373,1456.5,333.5L1456.5,333.5L1456.5,333.5z"/>
	<path class="st1" d="M18.4,611.8c-2.6-1.8-4.9-7.8,0-11.2c1.4-1,2.9-1.9,6-3.6c10.4-6,36.8-17.1,136.7-27.2
		c131.1-13.2,1259.1-21.5,1511.6-14.1c70.5,2.1,111.8,3,136.8,3.5c26.4,0.6,34.1,0.7,38,1.5c3.8,0.7,5.4,6.8-2.2,8.6
		c-1,0.3-1.9,0.3-3,0.4l0,0c-11.2,0.7-428,15.1-851.7,29.2c-43.8,1.5-87.8,2.9-131.4,4.2c-249.2,7.9-487.6,15.5-627.7,29.1
		c-74.8,7.3-111.6,18.5-126.1,28.5c0,0-3.2,2.3-6.7,0.3c-3.5-2.2-79.3-48.2-80.5-49.1l0,0L18.4,611.8z"/>
</g>
</svg>
